HIERARCHY
ROOT Hips
{
	OFFSET 0.00000 0.00000 0.00000
	CHANNELS 6 Xposition Yposition Zposition Zrotation Yrotation Xrotation 
	JOINT LHipJoint
	{
		OFFSET 0 0 0
		CHANNELS 3 Zrotation Yrotation Xrotation
		JOINT LeftUpLeg
		{
			OFFSET 1.52977 -1.71332 0.88991
			CHANNELS 3 Zrotation Yrotation Xrotation
			JOINT LeftLeg
			{
				OFFSET 2.23949 -6.15296 0.00000
				CHANNELS 3 Zrotation Yrotation Xrotation
				JOINT LeftFoot
				{
					OFFSET 2.68396 -7.37412 0.00000
					CHANNELS 3 Zrotation Yrotation Xrotation
					JOINT LeftToeBase
					{
						OFFSET 0.20538 -0.56428 2.52710
						CHANNELS 3 Zrotation Yrotation Xrotation
						End Site
						{
							OFFSET 0.00000 -0.00000 1.29919
						}
					}
				}
			}
		}
	}
	JOINT RHipJoint
	{
		OFFSET 0 0 0
		CHANNELS 3 Zrotation Yrotation Xrotation
		JOINT RightUpLeg
		{
			OFFSET -1.45689 -1.71333 0.88991
			CHANNELS 3 Zrotation Yrotation Xrotation
			JOINT RightLeg
			{
				OFFSET -2.36700 -6.50329 0.00000
				CHANNELS 3 Zrotation Yrotation Xrotation
				JOINT RightFoot
				{
					OFFSET -2.69814 -7.41308 0.00000
					CHANNELS 3 Zrotation Yrotation Xrotation
					JOINT RightToeBase
					{
						OFFSET -0.18734 -0.51471 2.37479
						CHANNELS 3 Zrotation Yrotation Xrotation
						End Site
						{
							OFFSET -0.00000 -0.00000 1.22113
						}
					}
				}
			}
		}
	}
	JOINT LowerBack
	{
		OFFSET 0 0 0
		CHANNELS 3 Zrotation Yrotation Xrotation
		JOINT Spine
		{
			OFFSET 0.04294 2.14638 -0.31163
			CHANNELS 3 Zrotation Yrotation Xrotation
			JOINT Spine1
			{
				OFFSET -0.00400 2.17216 0.01486
				CHANNELS 3 Zrotation Yrotation Xrotation
				JOINT Neck
				{
					OFFSET 0 0 0
					CHANNELS 3 Zrotation Yrotation Xrotation
					JOINT Neck1
					{
						OFFSET 0.03869 1.76598 0.14916
						CHANNELS 3 Zrotation Yrotation Xrotation
						JOINT Head
						{
							OFFSET -0.00760 1.75513 -0.18948
							CHANNELS 3 Zrotation Yrotation Xrotation
							End Site
							{
								OFFSET -0.00601 1.82444 -0.08310
							}
						}
					}
				}
				JOINT LeftShoulder
				{
					OFFSET 0 0 0
					CHANNELS 3 Zrotation Yrotation Xrotation
					JOINT LeftArm
					{
						OFFSET 3.73696 0.92058 0.01733
						CHANNELS 3 Zrotation Yrotation Xrotation
						JOINT LeftForeArm
						{
							OFFSET 5.22771 -0.00000 0.00000
							CHANNELS 3 Zrotation Yrotation Xrotation
							JOINT LeftHand
							{
								OFFSET 3.45251 -0.00000 0.00000
								CHANNELS 3 Zrotation Yrotation Xrotation
								JOINT LeftFingerBase
								{
									OFFSET 0 0 0
									CHANNELS 3 Zrotation Yrotation Xrotation
									JOINT LeftHandIndex1
									{
										OFFSET 0.55212 -0.00000 0.00000
										CHANNELS 3 Zrotation Yrotation Xrotation
										End Site
										{
											OFFSET 0.44513 -0.00000 0.00000
										}
									}
								}
								JOINT LThumb
								{
									OFFSET 0 0 0
									CHANNELS 3 Zrotation Yrotation Xrotation
									End Site
									{
										OFFSET 0.45193 -0.00000 0.45193
									}
								}
							}
						}
					}
				}
				JOINT RightShoulder
				{
					OFFSET 0 0 0
					CHANNELS 3 Zrotation Yrotation Xrotation
					JOINT RightArm
					{
						OFFSET -3.63819 0.83094 -0.13694
						CHANNELS 3 Zrotation Yrotation Xrotation
						JOINT RightForeArm
						{
							OFFSET -5.23980 -0.00000 -0.00000
							CHANNELS 3 Zrotation Yrotation Xrotation
							JOINT RightHand
							{
								OFFSET -3.48042 -0.00000 -0.00000
								CHANNELS 3 Zrotation Yrotation Xrotation
								JOINT RightFingerBase
								{
									OFFSET 0 0 0
									CHANNELS 3 Zrotation Yrotation Xrotation
									JOINT RightHandIndex1
									{
										OFFSET -0.61871 -0.00000 0.00000
										CHANNELS 3 Zrotation Yrotation Xrotation
										End Site
										{
											OFFSET -0.49882 -0.00000 0.00000
										}
									}
								}
								JOINT RThumb
								{
									OFFSET 0 0 0
									CHANNELS 3 Zrotation Yrotation Xrotation
									End Site
									{
										OFFSET -0.50644 -0.00000 0.50644
									}
								}
							}
						}
					}
				}
			}
		}
	}
}
MOTION
Frames: 15
Frame Time: 0.117647
0.00 0.00 0.00 0 0 0 0 0 0 -21 0 0 0 0 0 0 0 0 0 0 0 0 0 0 21 0 0 0 0 0 0 0 0 0 0 0 0 0 0 0 0 0 0 0 0 0 0 -16 0 0 21 0 0 11 0 0 0 -8 0 0 0 0 0 0 0 0 0 0 0 0 0 0 0 0 0 0 0 0 8 0 0 0 0 0 0 0 0 0 0 0 0 0 0 0 0 0
0.00 0.00 0.00 -165.9910 -83.8167 198.0100 0.0000 0.0000 0.0000 -21.3292 -5.5859 -56.4194 1.6788 8.1623 23.2081 0.0034 -2.4171 -1.9154 0.0325 1.1635 3.1987 0.0000 0.0000 0.0000 5.4675 19.0968 -67.5810 -6.4879 -14.8851 46.9099 -0.1171 -3.2345 -8.4872 -0.4144 4.1319 -11.4481 0.4649 0.0578 29.4511 -0.6248 -0.2997 4.6027 -0.8328 -0.3462 -11.0900 1.8607 1.8979 4.0385 -0.9699 2.2881 -19.4419 -0.7556 0.8711 -6.5313 -0.0000 -0.0000 0.0000 -84.9358 -1.7951 34.3802 20.6044 -31.3636 -5.8427 -0.0000 0.0000 -26.2974 19.9915 9.4011 3.4008 -7.1250 0.0000 -0.0000 -6.0979 39.9002 0.7699 -0.0000 -0.0000 0.0000 86.2733 3.0408 34.1566 -23.2985 34.4136 -7.3063 0.0000 -0.0000 -7.3287 -20.7510 -6.9091 2.6096 7.1250 -0.0000 -0.0000 5.1258 -37.3194 0.9719
0.00 0.00 0.00 -170.9520 -83.8406 202.0210 0.0000 0.0000 0.0000 -23.4664 -4.3431 -58.3283 1.8169 8.4738 24.1628 -0.0626 -4.7801 -0.1564 0.1179 2.2132 6.0953 0.0000 0.0000 0.0000 3.7493 17.8264 -71.6418 -11.4038 -18.1271 64.0861 -0.5496 1.5690 -13.5519 -1.0342 6.4683 -18.1495 0.4197 -0.0342 29.3327 -0.6783 -0.4423 4.6866 -0.8137 -0.4121 -10.9364 1.6277 1.8152 4.0573 -0.9430 2.1411 -19.6578 -0.6995 0.8073 -6.6089 0.0000 -0.0000 0.0000 -84.3826 -2.1774 33.3436 20.6000 -31.3584 -5.8404 -0.0000 0.0000 -26.2692 20.2485 9.4836 3.4782 -7.1250 0.0000 -0.0000 -5.8867 40.0083 0.7273 0.0000 -0.0000 0.0000 87.1174 2.1446 33.7226 -23.3054 34.4210 -7.3102 0.0000 -0.0000 -7.7052 -20.8446 -6.9584 2.6411 7.1250 -0.0000 -0.0000 5.0520 -37.3776 0.9506
0.00 0.00 0.00 -184.0910 -85.8389 210.0610 0.0000 0.0000 0.0000 -18.3266 -7.7221 -56.8513 1.1126 6.7012 18.8330 0.2850 3.0038 9.4965 0.0011 0.2156 0.5924 0.0000 0.0000 0.0000 15.0508 17.4287 -48.9920 -10.0891 -17.4597 59.7858 -1.8631 -3.1742 -27.0845 -0.3406 3.7504 -10.3755 -0.1398 0.2006 30.0285 -0.9620 -0.4057 5.2648 -0.8218 -0.4010 -10.6174 1.7281 1.2212 4.2885 -0.6630 1.3721 -19.9670 -0.5772 0.3994 -6.7614 -0.0000 0.0000 0.0000 -85.3672 0.8105 28.0856 22.1996 -33.2018 -6.6948 -0.0000 0.0000 -26.9898 21.0527 8.2704 3.1692 -7.1250 0.0000 -0.0000 -5.0285 38.7867 0.7720 -0.0000 0.0000 0.0000 88.0006 0.5043 34.9142 -22.5365 33.5781 -6.8802 0.0000 -0.0000 -6.6987 -20.8338 -6.8638 2.6039 7.1250 -0.0000 -0.0000 5.0507 -37.2764 0.9629
0.00 0.00 0.00 -227.8080 -88.0797 250.0020 0.0000 0.0000 0.0000 -11.3831 -10.3182 -65.1641 3.5460 11.5304 34.0904 0.6576 7.2093 14.5602 0.0309 -1.1354 -3.1216 0.0000 0.0000 0.0000 18.4024 16.2496 -50.3322 -9.4868 -17.1110 57.7588 -2.4535 -4.5295 -31.4622 -0.0887 -1.9205 5.2860 0.4049 -0.0870 32.9239 -0.7484 -0.6870 5.7967 -0.7053 -0.5804 -10.5125 2.1980 0.7891 4.6637 -0.5817 0.8849 -19.4520 -0.5973 0.1444 -6.6670 -0.0000 -0.0000 0.0000 -85.4134 1.5581 30.0142 20.9818 -31.8071 -6.0404 -0.0000 0.0000 -25.5460 19.6371 9.4476 3.3519 -7.1250 0.0000 -0.0000 -6.4124 39.9198 0.8068 -0.0000 -0.0000 0.0000 87.6443 2.7236 35.0012 -22.8995 33.9787 -7.0820 0.0000 -0.0000 -6.8770 -20.9390 -7.0208 2.6778 7.1250 -0.0000 -0.0000 4.9790 -37.4499 0.9280
0.00 0.00 0.00 -258.1810 -87.8296 279.7580 0.0000 0.0000 0.0000 -10.9870 -9.7349 -70.9550 8.0893 16.1846 52.8838 0.1925 0.8820 8.0225 0.2606 -3.2842 -9.0710 0.0000 0.0000 0.0000 18.2217 15.3569 -52.4636 -9.7130 -17.2453 58.5247 -2.2116 -4.4688 -29.9641 -0.1085 -2.1235 5.8472 0.2140 -0.2192 32.9636 -0.6661 -0.9090 5.8902 -0.4316 -0.6766 -10.4239 2.1489 0.6248 4.6843 -0.2445 0.7221 -19.1932 -0.4694 0.0489 -6.5925 -0.0000 -0.0000 0.0000 -85.3920 1.3842 30.8715 20.2567 -30.9504 -5.6628 -0.0000 0.0000 -25.0397 19.2536 9.7603 3.3887 -7.1250 0.0000 -0.0000 -6.7939 40.2156 0.8056 -0.0000 -0.0000 0.0000 87.3217 2.8341 34.3260 -22.4690 33.5030 -6.8429 0.0000 -0.0000 -6.5881 -20.8460 -7.0326 2.6693 7.1250 -0.0000 -0.0000 5.0592 -37.4566 0.9422
0.00 0.00 0.00 -278.0110 -87.3990 300.0450 0.0000 0.0000 0.0000 -9.8299 -9.9661 -73.5576 14.3447 19.2153 73.2546 0.0018 -0.3164 0.9882 0.3635 -3.8728 -10.7192 0.0000 0.0000 0.0000 17.9048 15.1332 -54.9064 -9.1063 -16.8756 56.4570 -1.6395 -5.2869 -26.5817 -0.1294 -2.3186 6.3869 0.5496 -0.2830 32.6456 -0.6255 -0.8281 5.5741 -0.6024 -0.6323 -10.6514 2.1823 0.4685 4.6594 -0.0893 0.5213 -19.6605 -0.4109 -0.0772 -6.7414 0.0000 0.0000 0.0000 -85.2218 1.0934 31.6743 19.8121 -30.4152 -5.4359 -0.0000 0.0000 -24.9626 20.0620 9.0812 3.2989 -7.1250 0.0000 -0.0000 -5.9906 39.5688 0.8052 0.0000 0.0000 0.0000 87.0200 2.5045 33.1638 -21.6016 32.5239 -6.3703 0.0000 -0.0000 -6.0430 -20.9908 -6.9375 2.6534 7.1250 -0.0000 -0.0000 4.9260 -37.3646 0.9283
0.00 0.00 0.00 -264.6560 -87.8173 288.1460 0.0000 0.0000 0.0000 -18.0197 -6.9503 -44.3321 12.4478 18.5736 67.4014 -0.0927 -6.2098 -1.0178 0.3831 -3.9746 -11.0053 0.0000 0.0000 0.0000 16.4033 15.7469 -61.1952 -6.0380 -14.4650 45.1340 -0.0804 -7.3467 -12.1112 -0.1911 -2.8153 7.7651 1.3371 -0.5593 28.0991 -0.4979 -0.8299 5.3561 -1.0078 -0.6118 -9.5621 2.1556 0.4963 4.1218 -0.2146 0.5475 -18.2732 -0.4468 -0.0199 -6.2034 -0.0000 -0.0000 0.0000 -84.7097 1.1964 33.3147 20.2352 -30.9246 -5.6517 -0.0000 0.0000 -25.2070 20.2689 8.5684 3.1493 -7.1250 0.0000 -0.0000 -5.7411 39.0437 0.8458 -0.0000 -0.0000 0.0000 87.6555 1.0452 33.4045 -22.0377 33.0196 -6.6064 0.0000 -0.0000 -6.2917 -21.0263 -6.9864 2.6769 7.1250 -0.0000 -0.0000 4.9012 -37.4190 0.9171
0.00 0.00 0.00 -267.1190 -87.1241 289.9140 0.0000 0.0000 0.0000 -21.8780 -6.4980 -38.9292 8.8814 16.7308 55.6792 0.7768 -10.5706 -16.3147 0.9951 -6.3487 -17.7995 0.0000 0.0000 0.0000 13.9843 16.1982 -64.5751 -5.5160 -13.9423 43.0067 0.2953 -10.6423 -8.8567 -0.0578 -1.5512 4.2670 1.0631 -0.6342 27.7952 -0.6645 -1.0255 5.4230 -0.9709 -0.6961 -9.3390 2.0041 0.4197 4.1038 0.0416 0.4737 -18.0678 -0.3354 -0.0600 -6.1375 0.0000 0.0000 0.0000 -84.7034 0.5816 34.0341 20.4662 -31.1999 -5.7709 -0.0000 0.0000 -25.6269 20.6432 8.3504 3.1317 -7.1250 0.0000 -0.0000 -5.3905 38.8413 0.8207 0.0000 0.0000 0.0000 87.5149 0.3590 33.5178 -22.3301 33.3481 -6.7664 0.0000 -0.0000 -6.1039 -20.7643 -7.2377 2.7348 7.1250 -0.0000 -0.0000 5.1517 -37.6692 0.9326
0.00 0.00 0.00 -213.0660 -84.8473 232.9610 0.0000 0.0000 0.0000 -25.3021 -10.5094 -43.4197 7.3258 15.6002 50.0960 1.8341 -0.8264 -25.3851 0.0409 -1.3060 -3.5912 0.0000 0.0000 0.0000 4.3315 19.3358 -69.0323 -9.4266 -17.0745 57.5540 -0.4487 3.7580 -11.9268 -1.5525 7.8641 -22.3020 0.5462 0.0497 29.7966 -1.3758 -0.5079 6.1317 -1.6446 -0.4995 -9.5154 2.1881 0.7603 3.7390 -1.4045 0.7414 -17.0366 -0.8364 0.1868 -5.7373 -0.0000 0.0000 0.0000 -83.8300 0.2223 33.5946 19.2560 -29.7355 -5.1572 -0.0000 0.0000 -24.4880 20.5510 9.6661 3.6019 -7.1250 0.0000 -0.0000 -5.6498 40.2267 0.6673 -0.0000 0.0000 0.0000 87.3330 0.7718 34.5298 -22.3343 33.3527 -6.7687 0.0000 -0.0000 -5.8467 -21.2270 -6.3355 2.4543 7.1250 -0.0000 -0.0000 4.6630 -36.7376 0.9502
0.00 0.00 0.00 -203.3260 -84.7707 223.3570 0.0000 0.0000 0.0000 -23.4869 -12.2529 -46.9499 7.4793 15.7226 50.6646 1.5888 1.1665 -24.2748 0.0065 -0.5195 -1.4274 0.0000 0.0000 0.0000 3.7625 20.1491 -68.1551 -14.7379 -19.3227 74.4459 -0.8201 0.2368 -17.0392 -1.8177 8.4756 -24.1684 0.7579 -0.0619 29.8300 -1.2997 -0.5762 6.0618 -1.6563 -0.5363 -9.6140 2.4390 0.8969 3.5500 -1.3134 0.9547 -17.0655 -0.8611 0.2642 -5.7093 -0.0000 -0.0000 0.0000 -83.4032 0.1103 32.3169 18.3772 -28.6375 -4.7286 -0.0000 0.0000 -23.9301 20.7981 10.0696 3.7994 -7.1250 0.0000 -0.0000 -5.4927 40.6750 0.5878 -0.0000 -0.0000 0.0000 87.5637 0.5718 34.3520 -21.7674 32.7132 -6.4597 0.0000 -0.0000 -6.1115 -21.3340 -6.4858 2.5261 7.1250 -0.0000 -0.0000 4.5881 -36.9043 0.9161
0.00 0.00 0.00 -191.6720 -82.8430 214.0320 0.0000 0.0000 0.0000 -19.5609 -14.4224 -52.9399 4.3566 12.6204 37.9636 -0.0262 7.3608 -9.8850 0.0046 -0.4367 -1.2000 0.0000 0.0000 0.0000 9.9100 17.1486 -51.2510 -18.0716 -19.9106 84.3537 -0.1519 -6.8983 -12.8566 -0.4137 4.1285 -11.4385 0.8881 0.0955 29.5545 -1.5068 -0.3439 5.7444 -2.0534 -0.4307 -9.8347 2.7026 1.2847 3.0210 -2.0502 1.3894 -16.6199 -1.1544 0.5148 -5.4613 -0.0000 -0.0000 0.0000 -83.3868 -0.4272 33.3497 19.3776 -29.8852 -5.2177 -0.0000 0.0000 -24.7095 20.4191 9.7361 3.6023 -7.1250 0.0000 -0.0000 -5.7750 40.2893 0.6733 -0.0000 -0.0000 0.0000 87.0402 0.4860 34.3344 -21.8132 32.7653 -6.4845 0.0000 -0.0000 -5.7427 -21.2969 -6.4153 2.4940 7.1250 -0.0000 -0.0000 4.6122 -36.8268 0.9297
0.00 0.00 0.00 -190.5860 -84.0771 211.4020 0.0000 0.0000 0.0000 -23.1312 -5.2703 -37.1126 7.7843 15.9583 51.7820 0.7142 -6.3665 -15.0814 1.1100 -6.6937 -18.8111 0.0000 0.0000 0.0000 11.9075 18.4315 -61.9414 -2.8236 -10.4039 30.2947 1.1296 -21.9515 4.6967 -0.2670 -3.3243 9.1829 -0.4272 -0.2169 30.2077 -1.5161 -1.2479 6.9111 -0.9621 -0.8581 -8.8372 1.5014 0.9957 3.9158 0.1947 1.3025 -15.3219 -0.2516 0.4331 -5.2415 0.0000 -0.0000 0.0000 -83.7122 -1.0365 36.3023 19.6556 -30.2252 -5.3569 -0.0000 0.0000 -25.0050 20.6954 9.2330 3.4687 -7.1250 0.0000 -0.0000 -5.4630 39.7804 0.7053 0.0000 -0.0000 0.0000 86.9654 1.8980 33.2832 -22.4809 33.5162 -6.8495 0.0000 -0.0000 -5.5259 -20.7916 -6.2140 2.3535 7.1250 -0.0000 -0.0000 5.0165 -36.5831 1.0417
0.00 0.00 0.00 -186.2040 -84.7926 205.4420 0.0000 0.0000 0.0000 -10.1363 -17.4323 -50.8124 1.9147 8.6860 24.8180 -0.2718 9.2101 -3.8962 0.0102 -0.6506 -1.7878 0.0000 0.0000 0.0000 17.9658 18.1391 -35.3720 -9.1248 -16.8874 56.5209 -2.6353 -2.4585 -31.6443 -0.3385 3.7389 -10.3431 0.8127 0.0840 31.6212 -1.0633 -0.4719 6.9561 -1.4524 -0.5327 -9.4467 2.3911 1.0338 3.3888 -0.1979 1.3119 -16.8572 -0.5218 0.3651 -5.6206 -0.0000 0.0000 0.0000 -83.6605 -0.8408 35.4031 19.5011 -30.0366 -5.2793 -0.0000 0.0000 -24.2238 21.1699 9.5321 3.6695 -7.1250 0.0000 -0.0000 -5.0913 40.1372 0.6122 -0.0000 0.0000 0.0000 87.8310 1.8146 33.9360 -21.0727 31.9131 -6.0883 0.0000 -0.0000 -3.6303 -21.2387 -6.1083 2.3682 7.1250 -0.0000 -0.0000 4.6304 -36.4959 0.9709
0.00 0.00 0.00 -204.2510 -86.7436 223.3220 0.0000 0.0000 0.0000 -10.4939 -16.4380 -57.6896 4.6764 13.0099 39.4055 0.0964 3.3678 -8.0858 0.8544 -5.8950 -16.4800 0.0000 0.0000 0.0000 18.4792 16.6947 -44.3979 -8.8933 -16.7385 55.7203 -2.5389 -2.1069 -30.9414 -0.0675 -1.6763 4.6119 1.0202 -0.4325 32.6196 -1.0290 -1.0554 6.7683 -1.1986 -0.8015 -9.3338 2.2829 0.9100 3.5470 0.2035 1.1868 -17.5300 -0.3725 0.2638 -5.8644 -0.0000 -0.0000 0.0000 -84.1775 -0.9472 36.1297 19.2767 -29.7610 -5.1675 -0.0000 0.0000 -24.3855 20.8175 9.8965 3.7388 -7.1250 0.0000 -0.0000 -5.4504 40.4935 0.6077 -0.0000 -0.0000 0.0000 87.4176 2.3591 33.3168 -21.2013 32.0626 -6.1565 0.0000 -0.0000 -4.1394 -21.0694 -6.8478 2.6300 7.1250 -0.0000 -0.0000 4.8496 -37.2742 0.9246
